<?xml version="1.0" encoding="utf-8"?>
<svg xmlns="http://www.w3.org/2000/svg" xmlns:xlink="http://www.w3.org/1999/xlink" width="600" height="400" viewBox="0 0 2400 1600">
<defs>
  <clipPath id="clip990">
    <rect x="0" y="0" width="2400" height="1600"/>
  </clipPath>
</defs>
<path clip-path="url(#clip990)" d="
M0 1600 L2400 1600 L2400 0 L0 0  Z
  " fill="#ffffff" fill-rule="evenodd" fill-opacity="1"/>
<defs>
  <clipPath id="clip991">
    <rect x="480" y="0" width="1681" height="1600"/>
  </clipPath>
</defs>
<path clip-path="url(#clip990)" d="
M205.121 1423.18 L2352.76 1423.18 L2352.76 123.472 L205.121 123.472  Z
  " fill="#ffffff" fill-rule="evenodd" fill-opacity="1"/>
<defs>
  <clipPath id="clip992">
    <rect x="205" y="123" width="2149" height="1301"/>
  </clipPath>
</defs>
<polyline clip-path="url(#clip992)" style="stroke:#000000; stroke-linecap:round; stroke-linejoin:round; stroke-width:2; stroke-opacity:0.1; fill:none" points="
  524.443,1423.18 524.443,123.472 
  "/>
<polyline clip-path="url(#clip992)" style="stroke:#000000; stroke-linecap:round; stroke-linejoin:round; stroke-width:2; stroke-opacity:0.1; fill:none" points="
  1027.44,1423.18 1027.44,123.472 
  "/>
<polyline clip-path="url(#clip992)" style="stroke:#000000; stroke-linecap:round; stroke-linejoin:round; stroke-width:2; stroke-opacity:0.1; fill:none" points="
  1530.44,1423.18 1530.44,123.472 
  "/>
<polyline clip-path="url(#clip992)" style="stroke:#000000; stroke-linecap:round; stroke-linejoin:round; stroke-width:2; stroke-opacity:0.1; fill:none" points="
  2033.43,1423.18 2033.43,123.472 
  "/>
<polyline clip-path="url(#clip990)" style="stroke:#000000; stroke-linecap:round; stroke-linejoin:round; stroke-width:4; stroke-opacity:1; fill:none" points="
  205.121,1423.18 2352.76,1423.18 
  "/>
<polyline clip-path="url(#clip990)" style="stroke:#000000; stroke-linecap:round; stroke-linejoin:round; stroke-width:4; stroke-opacity:1; fill:none" points="
  524.443,1423.18 524.443,1404.28 
  "/>
<polyline clip-path="url(#clip990)" style="stroke:#000000; stroke-linecap:round; stroke-linejoin:round; stroke-width:4; stroke-opacity:1; fill:none" points="
  1027.44,1423.18 1027.44,1404.28 
  "/>
<polyline clip-path="url(#clip990)" style="stroke:#000000; stroke-linecap:round; stroke-linejoin:round; stroke-width:4; stroke-opacity:1; fill:none" points="
  1530.44,1423.18 1530.44,1404.28 
  "/>
<polyline clip-path="url(#clip990)" style="stroke:#000000; stroke-linecap:round; stroke-linejoin:round; stroke-width:4; stroke-opacity:1; fill:none" points="
  2033.43,1423.18 2033.43,1404.28 
  "/>
<path clip-path="url(#clip990)" d="M514.825 1481.64 L522.464 1481.64 L522.464 1455.28 L514.154 1456.95 L514.154 1452.69 L522.418 1451.02 L527.094 1451.02 L527.094 1481.64 L534.733 1481.64 L534.733 1485.58 L514.825 1485.58 L514.825 1481.64 Z" fill="#000000" fill-rule="evenodd" fill-opacity="1" /><path clip-path="url(#clip990)" d="M1022.09 1481.64 L1038.41 1481.64 L1038.41 1485.58 L1016.47 1485.58 L1016.47 1481.64 Q1019.13 1478.89 1023.71 1474.26 Q1028.32 1469.61 1029.5 1468.27 Q1031.75 1465.74 1032.63 1464.01 Q1033.53 1462.25 1033.53 1460.56 Q1033.53 1457.8 1031.58 1456.07 Q1029.66 1454.33 1026.56 1454.33 Q1024.36 1454.33 1021.91 1455.09 Q1019.48 1455.86 1016.7 1457.41 L1016.7 1452.69 Q1019.52 1451.55 1021.98 1450.97 Q1024.43 1450.39 1026.47 1450.39 Q1031.84 1450.39 1035.03 1453.08 Q1038.23 1455.77 1038.23 1460.26 Q1038.23 1462.39 1037.42 1464.31 Q1036.63 1466.2 1034.52 1468.8 Q1033.94 1469.47 1030.84 1472.69 Q1027.74 1475.88 1022.09 1481.64 Z" fill="#000000" fill-rule="evenodd" fill-opacity="1" /><path clip-path="url(#clip990)" d="M1534.68 1466.95 Q1538.04 1467.66 1539.92 1469.93 Q1541.81 1472.2 1541.81 1475.53 Q1541.81 1480.65 1538.3 1483.45 Q1534.78 1486.25 1528.3 1486.25 Q1526.12 1486.25 1523.8 1485.81 Q1521.51 1485.39 1519.06 1484.54 L1519.06 1480.02 Q1521 1481.16 1523.32 1481.74 Q1525.63 1482.32 1528.16 1482.32 Q1532.55 1482.32 1534.85 1480.58 Q1537.16 1478.84 1537.16 1475.53 Q1537.16 1472.48 1535.01 1470.77 Q1532.88 1469.03 1529.06 1469.03 L1525.03 1469.03 L1525.03 1465.19 L1529.24 1465.19 Q1532.69 1465.19 1534.52 1463.82 Q1536.35 1462.43 1536.35 1459.84 Q1536.35 1457.18 1534.45 1455.77 Q1532.58 1454.33 1529.06 1454.33 Q1527.14 1454.33 1524.94 1454.75 Q1522.74 1455.16 1520.1 1456.04 L1520.1 1451.88 Q1522.76 1451.14 1525.08 1450.77 Q1527.42 1450.39 1529.48 1450.39 Q1534.8 1450.39 1537.9 1452.83 Q1541 1455.23 1541 1459.35 Q1541 1462.22 1539.36 1464.21 Q1537.72 1466.18 1534.68 1466.95 Z" fill="#000000" fill-rule="evenodd" fill-opacity="1" /><path clip-path="url(#clip990)" d="M2036.44 1455.09 L2024.64 1473.54 L2036.44 1473.54 L2036.44 1455.09 M2035.22 1451.02 L2041.1 1451.02 L2041.1 1473.54 L2046.03 1473.54 L2046.03 1477.43 L2041.1 1477.43 L2041.1 1485.58 L2036.44 1485.58 L2036.44 1477.43 L2020.84 1477.43 L2020.84 1472.92 L2035.22 1451.02 Z" fill="#000000" fill-rule="evenodd" fill-opacity="1" /><path clip-path="url(#clip990)" d="M1156.38 1522.27 L1156.38 1532.4 L1168.45 1532.4 L1168.45 1536.95 L1156.38 1536.95 L1156.38 1556.3 Q1156.38 1560.66 1157.56 1561.9 Q1158.77 1563.14 1162.43 1563.14 L1168.45 1563.14 L1168.45 1568.04 L1162.43 1568.04 Q1155.65 1568.04 1153.07 1565.53 Q1150.49 1562.98 1150.49 1556.3 L1150.49 1536.95 L1146.2 1536.95 L1146.2 1532.4 L1150.49 1532.4 L1150.49 1522.27 L1156.38 1522.27 Z" fill="#000000" fill-rule="evenodd" fill-opacity="1" /><path clip-path="url(#clip990)" d="M1205.78 1546.53 L1205.78 1568.04 L1199.92 1568.04 L1199.92 1546.72 Q1199.92 1541.66 1197.95 1539.14 Q1195.98 1536.63 1192.03 1536.63 Q1187.29 1536.63 1184.55 1539.65 Q1181.81 1542.68 1181.81 1547.9 L1181.81 1568.04 L1175.93 1568.04 L1175.93 1518.52 L1181.81 1518.52 L1181.81 1537.93 Q1183.91 1534.72 1186.75 1533.13 Q1189.61 1531.54 1193.34 1531.54 Q1199.48 1531.54 1202.63 1535.36 Q1205.78 1539.14 1205.78 1546.53 Z" fill="#000000" fill-rule="evenodd" fill-opacity="1" /><path clip-path="url(#clip990)" d="M1238.12 1537.87 Q1237.13 1537.3 1235.95 1537.04 Q1234.81 1536.76 1233.41 1536.76 Q1228.44 1536.76 1225.77 1540 Q1223.13 1543.22 1223.13 1549.27 L1223.13 1568.04 L1217.24 1568.04 L1217.24 1532.4 L1223.13 1532.4 L1223.13 1537.93 Q1224.97 1534.69 1227.93 1533.13 Q1230.89 1531.54 1235.13 1531.54 Q1235.73 1531.54 1236.46 1531.63 Q1237.2 1531.7 1238.09 1531.85 L1238.12 1537.87 Z" fill="#000000" fill-rule="evenodd" fill-opacity="1" /><path clip-path="url(#clip990)" d="M1273.32 1548.76 L1273.32 1551.62 L1246.39 1551.62 Q1246.78 1557.67 1250.02 1560.85 Q1253.3 1564 1259.13 1564 Q1262.5 1564 1265.65 1563.17 Q1268.83 1562.35 1271.95 1560.69 L1271.95 1566.23 Q1268.8 1567.57 1265.49 1568.27 Q1262.18 1568.97 1258.78 1568.97 Q1250.25 1568.97 1245.25 1564 Q1240.28 1559.04 1240.28 1550.57 Q1240.28 1541.82 1244.99 1536.69 Q1249.74 1531.54 1257.76 1531.54 Q1264.95 1531.54 1269.12 1536.18 Q1273.32 1540.8 1273.32 1548.76 M1267.46 1547.04 Q1267.4 1542.23 1264.76 1539.37 Q1262.15 1536.5 1257.82 1536.5 Q1252.92 1536.5 1249.96 1539.27 Q1247.03 1542.04 1246.58 1547.07 L1267.46 1547.04 Z" fill="#000000" fill-rule="evenodd" fill-opacity="1" /><path clip-path="url(#clip990)" d="M1299.13 1550.12 Q1292.04 1550.12 1289.3 1551.75 Q1286.56 1553.37 1286.56 1557.29 Q1286.56 1560.4 1288.6 1562.25 Q1290.67 1564.07 1294.2 1564.07 Q1299.07 1564.07 1302 1560.63 Q1304.96 1557.16 1304.96 1551.43 L1304.96 1550.12 L1299.13 1550.12 M1310.81 1547.71 L1310.81 1568.04 L1304.96 1568.04 L1304.96 1562.63 Q1302.95 1565.88 1299.96 1567.44 Q1296.97 1568.97 1292.64 1568.97 Q1287.17 1568.97 1283.92 1565.91 Q1280.7 1562.82 1280.7 1557.67 Q1280.7 1551.65 1284.72 1548.6 Q1288.76 1545.54 1296.75 1545.54 L1304.96 1545.54 L1304.96 1544.97 Q1304.96 1540.93 1302.28 1538.73 Q1299.64 1536.5 1294.84 1536.5 Q1291.78 1536.5 1288.88 1537.23 Q1285.99 1537.97 1283.31 1539.43 L1283.31 1534.02 Q1286.53 1532.78 1289.55 1532.17 Q1292.58 1531.54 1295.44 1531.54 Q1303.18 1531.54 1307 1535.55 Q1310.81 1539.56 1310.81 1547.71 Z" fill="#000000" fill-rule="evenodd" fill-opacity="1" /><path clip-path="url(#clip990)" d="M1346.34 1537.81 L1346.34 1518.52 L1352.19 1518.52 L1352.19 1568.04 L1346.34 1568.04 L1346.34 1562.7 Q1344.49 1565.88 1341.66 1567.44 Q1338.86 1568.97 1334.91 1568.97 Q1328.45 1568.97 1324.37 1563.81 Q1320.33 1558.65 1320.33 1550.25 Q1320.33 1541.85 1324.37 1536.69 Q1328.45 1531.54 1334.91 1531.54 Q1338.86 1531.54 1341.66 1533.1 Q1344.49 1534.62 1346.34 1537.81 M1326.38 1550.25 Q1326.38 1556.71 1329.02 1560.4 Q1331.69 1564.07 1336.34 1564.07 Q1340.99 1564.07 1343.66 1560.4 Q1346.34 1556.71 1346.34 1550.25 Q1346.34 1543.79 1343.66 1540.13 Q1340.99 1536.44 1336.34 1536.44 Q1331.69 1536.44 1329.02 1540.13 Q1326.38 1543.79 1326.38 1550.25 Z" fill="#000000" fill-rule="evenodd" fill-opacity="1" /><path clip-path="url(#clip990)" d="M1364.25 1532.4 L1370.11 1532.4 L1370.11 1568.04 L1364.25 1568.04 L1364.25 1532.4 M1364.25 1518.52 L1370.11 1518.52 L1370.11 1525.93 L1364.25 1525.93 L1364.25 1518.52 Z" fill="#000000" fill-rule="evenodd" fill-opacity="1" /><path clip-path="url(#clip990)" d="M1405.82 1537.81 L1405.82 1518.52 L1411.68 1518.52 L1411.68 1568.04 L1405.82 1568.04 L1405.82 1562.7 Q1403.98 1565.88 1401.14 1567.44 Q1398.34 1568.97 1394.4 1568.97 Q1387.94 1568.97 1383.86 1563.81 Q1379.82 1558.65 1379.82 1550.25 Q1379.82 1541.85 1383.86 1536.69 Q1387.94 1531.54 1394.4 1531.54 Q1398.34 1531.54 1401.14 1533.1 Q1403.98 1534.62 1405.82 1537.81 M1385.87 1550.25 Q1385.87 1556.71 1388.51 1560.4 Q1391.18 1564.07 1395.83 1564.07 Q1400.48 1564.07 1403.15 1560.4 Q1405.82 1556.71 1405.82 1550.25 Q1405.82 1543.79 1403.15 1540.13 Q1400.48 1536.44 1395.83 1536.44 Q1391.18 1536.44 1388.51 1540.13 Q1385.87 1543.79 1385.87 1550.25 Z" fill="#000000" fill-rule="evenodd" fill-opacity="1" /><polyline clip-path="url(#clip992)" style="stroke:#000000; stroke-linecap:round; stroke-linejoin:round; stroke-width:2; stroke-opacity:0.1; fill:none" points="
  205.121,1386.4 2352.76,1386.4 
  "/>
<polyline clip-path="url(#clip992)" style="stroke:#000000; stroke-linecap:round; stroke-linejoin:round; stroke-width:2; stroke-opacity:0.1; fill:none" points="
  205.121,1059.43 2352.76,1059.43 
  "/>
<polyline clip-path="url(#clip992)" style="stroke:#000000; stroke-linecap:round; stroke-linejoin:round; stroke-width:2; stroke-opacity:0.1; fill:none" points="
  205.121,732.455 2352.76,732.455 
  "/>
<polyline clip-path="url(#clip992)" style="stroke:#000000; stroke-linecap:round; stroke-linejoin:round; stroke-width:2; stroke-opacity:0.1; fill:none" points="
  205.121,405.484 2352.76,405.484 
  "/>
<polyline clip-path="url(#clip990)" style="stroke:#000000; stroke-linecap:round; stroke-linejoin:round; stroke-width:4; stroke-opacity:1; fill:none" points="
  205.121,1423.18 205.121,123.472 
  "/>
<polyline clip-path="url(#clip990)" style="stroke:#000000; stroke-linecap:round; stroke-linejoin:round; stroke-width:4; stroke-opacity:1; fill:none" points="
  205.121,1386.4 224.019,1386.4 
  "/>
<polyline clip-path="url(#clip990)" style="stroke:#000000; stroke-linecap:round; stroke-linejoin:round; stroke-width:4; stroke-opacity:1; fill:none" points="
  205.121,1059.43 224.019,1059.43 
  "/>
<polyline clip-path="url(#clip990)" style="stroke:#000000; stroke-linecap:round; stroke-linejoin:round; stroke-width:4; stroke-opacity:1; fill:none" points="
  205.121,732.455 224.019,732.455 
  "/>
<polyline clip-path="url(#clip990)" style="stroke:#000000; stroke-linecap:round; stroke-linejoin:round; stroke-width:4; stroke-opacity:1; fill:none" points="
  205.121,405.484 224.019,405.484 
  "/>
<path clip-path="url(#clip990)" d="M157.177 1372.19 Q153.566 1372.19 151.737 1375.76 Q149.931 1379.3 149.931 1386.43 Q149.931 1393.54 151.737 1397.1 Q153.566 1400.64 157.177 1400.64 Q160.811 1400.64 162.616 1397.1 Q164.445 1393.54 164.445 1386.43 Q164.445 1379.3 162.616 1375.76 Q160.811 1372.19 157.177 1372.19 M157.177 1368.49 Q162.987 1368.49 166.042 1373.1 Q169.121 1377.68 169.121 1386.43 Q169.121 1395.16 166.042 1399.76 Q162.987 1404.35 157.177 1404.35 Q151.366 1404.35 148.288 1399.76 Q145.232 1395.16 145.232 1386.43 Q145.232 1377.68 148.288 1373.1 Q151.366 1368.49 157.177 1368.49 Z" fill="#000000" fill-rule="evenodd" fill-opacity="1" /><path clip-path="url(#clip990)" d="M121.043 1072.77 L137.362 1072.77 L137.362 1076.71 L115.418 1076.71 L115.418 1072.77 Q118.08 1070.02 122.663 1065.39 Q127.269 1060.73 128.45 1059.39 Q130.695 1056.87 131.575 1055.13 Q132.478 1053.37 132.478 1051.68 Q132.478 1048.93 130.533 1047.19 Q128.612 1045.46 125.51 1045.46 Q123.311 1045.46 120.857 1046.22 Q118.427 1046.98 115.649 1048.53 L115.649 1043.81 Q118.473 1042.68 120.927 1042.1 Q123.38 1041.52 125.418 1041.52 Q130.788 1041.52 133.982 1044.21 Q137.177 1046.89 137.177 1051.38 Q137.177 1053.51 136.367 1055.43 Q135.579 1057.33 133.473 1059.92 Q132.894 1060.59 129.792 1063.81 Q126.691 1067.01 121.043 1072.77 Z" fill="#000000" fill-rule="evenodd" fill-opacity="1" /><path clip-path="url(#clip990)" d="M157.177 1045.22 Q153.566 1045.22 151.737 1048.79 Q149.931 1052.33 149.931 1059.46 Q149.931 1066.57 151.737 1070.13 Q153.566 1073.67 157.177 1073.67 Q160.811 1073.67 162.616 1070.13 Q164.445 1066.57 164.445 1059.46 Q164.445 1052.33 162.616 1048.79 Q160.811 1045.22 157.177 1045.22 M157.177 1041.52 Q162.987 1041.52 166.042 1046.13 Q169.121 1050.71 169.121 1059.46 Q169.121 1068.19 166.042 1072.79 Q162.987 1077.38 157.177 1077.38 Q151.366 1077.38 148.288 1072.79 Q145.232 1068.19 145.232 1059.46 Q145.232 1050.71 148.288 1046.13 Q151.366 1041.52 157.177 1041.52 Z" fill="#000000" fill-rule="evenodd" fill-opacity="1" /><path clip-path="url(#clip990)" d="M129.862 719.249 L118.056 737.698 L129.862 737.698 L129.862 719.249 M128.635 715.175 L134.515 715.175 L134.515 737.698 L139.445 737.698 L139.445 741.587 L134.515 741.587 L134.515 749.735 L129.862 749.735 L129.862 741.587 L114.26 741.587 L114.26 737.073 L128.635 715.175 Z" fill="#000000" fill-rule="evenodd" fill-opacity="1" /><path clip-path="url(#clip990)" d="M157.177 718.253 Q153.566 718.253 151.737 721.818 Q149.931 725.36 149.931 732.489 Q149.931 739.596 151.737 743.161 Q153.566 746.702 157.177 746.702 Q160.811 746.702 162.616 743.161 Q164.445 739.596 164.445 732.489 Q164.445 725.36 162.616 721.818 Q160.811 718.253 157.177 718.253 M157.177 714.55 Q162.987 714.55 166.042 719.156 Q169.121 723.739 169.121 732.489 Q169.121 741.216 166.042 745.823 Q162.987 750.406 157.177 750.406 Q151.366 750.406 148.288 745.823 Q145.232 741.216 145.232 732.489 Q145.232 723.739 148.288 719.156 Q151.366 714.55 157.177 714.55 Z" fill="#000000" fill-rule="evenodd" fill-opacity="1" /><path clip-path="url(#clip990)" d="M127.593 403.621 Q124.445 403.621 122.593 405.774 Q120.765 407.926 120.765 411.676 Q120.765 415.403 122.593 417.579 Q124.445 419.732 127.593 419.732 Q130.742 419.732 132.57 417.579 Q134.422 415.403 134.422 411.676 Q134.422 407.926 132.57 405.774 Q130.742 403.621 127.593 403.621 M136.876 388.968 L136.876 393.227 Q135.117 392.394 133.311 391.954 Q131.529 391.514 129.769 391.514 Q125.14 391.514 122.686 394.639 Q120.255 397.764 119.908 404.084 Q121.274 402.07 123.334 401.005 Q125.394 399.917 127.871 399.917 Q133.08 399.917 136.089 403.088 Q139.121 406.236 139.121 411.676 Q139.121 417 135.973 420.218 Q132.825 423.435 127.593 423.435 Q121.598 423.435 118.427 418.852 Q115.256 414.246 115.256 405.519 Q115.256 397.324 119.144 392.463 Q123.033 387.579 129.584 387.579 Q131.343 387.579 133.126 387.926 Q134.931 388.274 136.876 388.968 Z" fill="#000000" fill-rule="evenodd" fill-opacity="1" /><path clip-path="url(#clip990)" d="M157.177 391.283 Q153.566 391.283 151.737 394.848 Q149.931 398.389 149.931 405.519 Q149.931 412.625 151.737 416.19 Q153.566 419.732 157.177 419.732 Q160.811 419.732 162.616 416.19 Q164.445 412.625 164.445 405.519 Q164.445 398.389 162.616 394.848 Q160.811 391.283 157.177 391.283 M157.177 387.579 Q162.987 387.579 166.042 392.186 Q169.121 396.769 169.121 405.519 Q169.121 414.246 166.042 418.852 Q162.987 423.435 157.177 423.435 Q151.366 423.435 148.288 418.852 Q145.232 414.246 145.232 405.519 Q145.232 396.769 148.288 392.186 Q151.366 387.579 157.177 387.579 Z" fill="#000000" fill-rule="evenodd" fill-opacity="1" /><path clip-path="url(#clip990)" d="M35.3266 933.264 L35.3266 942.526 L45.9574 945.2 L45.9574 935.874 L35.3266 933.264 M17.2162 938.039 L30.4251 941.349 L30.4251 932.055 L17.2162 928.713 L17.2162 923.62 L30.4251 926.899 L30.4251 916.968 L35.3266 916.968 L35.3266 928.14 L45.9574 930.75 L45.9574 920.628 L50.8271 920.628 L50.8271 931.991 L64.0042 935.301 L64.0042 940.394 L50.8271 937.116 L50.8271 946.441 L64.0042 949.72 L64.0042 954.844 L50.8271 951.534 L50.8271 961.56 L45.9574 961.56 L45.9574 950.356 L35.3266 947.683 L35.3266 957.931 L30.4251 957.931 L30.4251 946.441 L17.2162 943.195 L17.2162 938.039 Z" fill="#000000" fill-rule="evenodd" fill-opacity="1" /><path clip-path="url(#clip990)" d="M28.3562 885.108 L28.3562 879.251 L64.0042 879.251 L64.0042 885.108 L28.3562 885.108 M14.479 885.108 L14.479 879.251 L21.895 879.251 L21.895 885.108 L14.479 885.108 Z" fill="#000000" fill-rule="evenodd" fill-opacity="1" /><path clip-path="url(#clip990)" d="M18.2347 861.205 L28.3562 861.205 L28.3562 849.142 L32.9077 849.142 L32.9077 861.205 L52.2594 861.205 Q56.6199 861.205 57.8613 860.027 Q59.1026 858.817 59.1026 855.157 L59.1026 849.142 L64.0042 849.142 L64.0042 855.157 Q64.0042 861.937 61.4897 864.515 Q58.9434 867.093 52.2594 867.093 L32.9077 867.093 L32.9077 871.39 L28.3562 871.39 L28.3562 867.093 L18.2347 867.093 L18.2347 861.205 Z" fill="#000000" fill-rule="evenodd" fill-opacity="1" /><path clip-path="url(#clip990)" d="M44.7161 810.947 L47.5806 810.947 L47.5806 837.874 Q53.6281 837.492 56.8109 834.246 Q59.9619 830.967 59.9619 825.143 Q59.9619 821.769 59.1344 818.618 Q58.3069 815.435 56.6518 812.316 L62.1899 812.316 Q63.5267 815.467 64.227 818.777 Q64.9272 822.087 64.9272 825.493 Q64.9272 834.023 59.9619 839.02 Q54.9967 843.985 46.5303 843.985 Q37.7774 843.985 32.6531 839.275 Q27.4968 834.532 27.4968 826.511 Q27.4968 819.318 32.1438 815.149 Q36.7589 810.947 44.7161 810.947 M42.9973 816.804 Q38.1912 816.867 35.3266 819.509 Q32.4621 822.119 32.4621 826.448 Q32.4621 831.349 35.2312 834.309 Q38.0002 837.238 43.0292 837.683 L42.9973 816.804 Z" fill="#000000" fill-rule="evenodd" fill-opacity="1" /><path clip-path="url(#clip990)" d="M33.8307 780.678 Q33.2578 781.665 33.0032 782.843 Q32.7167 783.989 32.7167 785.389 Q32.7167 790.354 35.9632 793.028 Q39.1779 795.67 45.2253 795.67 L64.0042 795.67 L64.0042 801.558 L28.3562 801.558 L28.3562 795.67 L33.8944 795.67 Q30.6479 793.824 29.0883 790.864 Q27.4968 787.903 27.4968 783.67 Q27.4968 783.066 27.5923 782.333 Q27.656 781.601 27.8151 780.71 L33.8307 780.678 Z" fill="#000000" fill-rule="evenodd" fill-opacity="1" /><path clip-path="url(#clip990)" d="M46.0847 758.335 Q46.0847 765.433 47.7079 768.17 Q49.3312 770.907 53.2461 770.907 Q56.3653 770.907 58.2114 768.87 Q60.0256 766.801 60.0256 763.268 Q60.0256 758.398 56.5881 755.47 Q53.1188 752.51 47.3897 752.51 L46.0847 752.51 L46.0847 758.335 M43.6657 746.654 L64.0042 746.654 L64.0042 752.51 L58.5933 752.51 Q61.8398 754.515 63.3994 757.507 Q64.9272 760.499 64.9272 764.828 Q64.9272 770.302 61.8716 773.549 Q58.7843 776.763 53.6281 776.763 Q47.6125 776.763 44.5569 772.753 Q41.5014 768.711 41.5014 760.722 L41.5014 752.51 L40.9285 752.51 Q36.8862 752.51 34.6901 755.184 Q32.4621 757.825 32.4621 762.632 Q32.4621 765.687 33.1941 768.584 Q33.9262 771.48 35.3903 774.154 L29.9795 774.154 Q28.7381 770.939 28.1334 767.915 Q27.4968 764.891 27.4968 762.027 Q27.4968 754.293 31.5072 750.473 Q35.5176 746.654 43.6657 746.654 Z" fill="#000000" fill-rule="evenodd" fill-opacity="1" /><path clip-path="url(#clip990)" d="M18.2347 728.798 L28.3562 728.798 L28.3562 716.735 L32.9077 716.735 L32.9077 728.798 L52.2594 728.798 Q56.6199 728.798 57.8613 727.62 Q59.1026 726.411 59.1026 722.75 L59.1026 716.735 L64.0042 716.735 L64.0042 722.75 Q64.0042 729.53 61.4897 732.108 Q58.9434 734.686 52.2594 734.686 L32.9077 734.686 L32.9077 738.983 L28.3562 738.983 L28.3562 734.686 L18.2347 734.686 L18.2347 728.798 Z" fill="#000000" fill-rule="evenodd" fill-opacity="1" /><path clip-path="url(#clip990)" d="M28.3562 709.032 L28.3562 703.176 L64.0042 703.176 L64.0042 709.032 L28.3562 709.032 M14.479 709.032 L14.479 703.176 L21.895 703.176 L21.895 709.032 L14.479 709.032 Z" fill="#000000" fill-rule="evenodd" fill-opacity="1" /><path clip-path="url(#clip990)" d="M32.4621 677.108 Q32.4621 681.819 36.1542 684.556 Q39.8145 687.293 46.212 687.293 Q52.6095 687.293 56.3017 684.588 Q59.9619 681.851 59.9619 677.108 Q59.9619 672.43 56.2698 669.692 Q52.5777 666.955 46.212 666.955 Q39.8781 666.955 36.186 669.692 Q32.4621 672.43 32.4621 677.108 M27.4968 677.108 Q27.4968 669.469 32.4621 665.109 Q37.4273 660.748 46.212 660.748 Q54.9649 660.748 59.9619 665.109 Q64.9272 669.469 64.9272 677.108 Q64.9272 684.779 59.9619 689.14 Q54.9649 693.468 46.212 693.468 Q37.4273 693.468 32.4621 689.14 Q27.4968 684.779 27.4968 677.108 Z" fill="#000000" fill-rule="evenodd" fill-opacity="1" /><path clip-path="url(#clip990)" d="M42.4881 621.408 L64.0042 621.408 L64.0042 627.265 L42.679 627.265 Q37.6183 627.265 35.1038 629.238 Q32.5894 631.212 32.5894 635.158 Q32.5894 639.901 35.6131 642.638 Q38.6368 645.375 43.8567 645.375 L64.0042 645.375 L64.0042 651.264 L28.3562 651.264 L28.3562 645.375 L33.8944 645.375 Q30.6797 643.275 29.0883 640.442 Q27.4968 637.577 27.4968 633.853 Q27.4968 627.71 31.3163 624.559 Q35.1038 621.408 42.4881 621.408 Z" fill="#000000" fill-rule="evenodd" fill-opacity="1" /><path clip-path="url(#clip990)" d="M29.4065 587.002 L34.9447 587.002 Q33.6716 589.484 33.035 592.158 Q32.3984 594.832 32.3984 597.696 Q32.3984 602.057 33.7352 604.253 Q35.072 606.417 37.7456 606.417 Q39.7826 606.417 40.9603 604.858 Q42.1061 603.298 43.1565 598.587 L43.6021 596.582 Q44.9389 590.344 47.3897 587.734 Q49.8086 585.092 54.1691 585.092 Q59.1344 585.092 62.0308 589.039 Q64.9272 592.954 64.9272 599.829 Q64.9272 602.693 64.3543 605.812 Q63.8132 608.9 62.6992 612.337 L56.6518 612.337 Q58.3387 609.091 59.198 605.94 Q60.0256 602.789 60.0256 599.701 Q60.0256 595.564 58.6251 593.336 Q57.1929 591.108 54.6147 591.108 Q52.2276 591.108 50.9545 592.731 Q49.6813 594.322 48.5037 599.765 L48.0262 601.802 Q46.8804 607.245 44.5251 609.664 Q42.138 612.083 38.0002 612.083 Q32.9713 612.083 30.2341 608.518 Q27.4968 604.953 27.4968 598.396 Q27.4968 595.15 27.9743 592.285 Q28.4517 589.421 29.4065 587.002 Z" fill="#000000" fill-rule="evenodd" fill-opacity="1" /><path clip-path="url(#clip990)" d="M855.194 12.096 L866.212 12.096 L893.029 62.6918 L893.029 12.096 L900.969 12.096 L900.969 72.576 L889.95 72.576 L863.133 21.9802 L863.133 72.576 L855.194 72.576 L855.194 12.096 Z" fill="#000000" fill-rule="evenodd" fill-opacity="1" /><path clip-path="url(#clip990)" d="M916.16 54.671 L916.16 27.2059 L923.613 27.2059 L923.613 54.3874 Q923.613 60.8284 926.125 64.0691 Q928.636 67.2693 933.66 67.2693 Q939.695 67.2693 943.179 63.421 Q946.704 59.5726 946.704 52.9291 L946.704 27.2059 L954.157 27.2059 L954.157 72.576 L946.704 72.576 L946.704 65.6084 Q943.989 69.7404 940.384 71.7658 Q936.819 73.7508 932.08 73.7508 Q924.262 73.7508 920.211 68.8897 Q916.16 64.0286 916.16 54.671 M934.915 26.1121 L934.915 26.1121 Z" fill="#000000" fill-rule="evenodd" fill-opacity="1" /><path clip-path="url(#clip990)" d="M1004.83 35.9153 Q1007.63 30.8922 1011.52 28.5022 Q1015.41 26.1121 1020.67 26.1121 Q1027.76 26.1121 1031.61 31.0947 Q1035.46 36.0368 1035.46 45.1919 L1035.46 72.576 L1027.96 72.576 L1027.96 45.4349 Q1027.96 38.913 1025.66 35.7533 Q1023.35 32.5936 1018.61 32.5936 Q1012.81 32.5936 1009.45 36.4419 Q1006.09 40.2903 1006.09 46.9338 L1006.09 72.576 L998.596 72.576 L998.596 45.4349 Q998.596 38.8725 996.287 35.7533 Q993.978 32.5936 989.157 32.5936 Q983.445 32.5936 980.083 36.4824 Q976.721 40.3308 976.721 46.9338 L976.721 72.576 L969.227 72.576 L969.227 27.2059 L976.721 27.2059 L976.721 34.2544 Q979.273 30.082 982.838 28.0971 Q986.402 26.1121 991.304 26.1121 Q996.246 26.1121 999.689 28.6237 Q1003.17 31.1352 1004.83 35.9153 Z" fill="#000000" fill-rule="evenodd" fill-opacity="1" /><path clip-path="url(#clip990)" d="M1082.89 49.9314 Q1082.89 41.7081 1079.49 37.0496 Q1076.13 32.3505 1070.22 32.3505 Q1064.3 32.3505 1060.9 37.0496 Q1057.54 41.7081 1057.54 49.9314 Q1057.54 58.1548 1060.9 62.8538 Q1064.3 67.5124 1070.22 67.5124 Q1076.13 67.5124 1079.49 62.8538 Q1082.89 58.1548 1082.89 49.9314 M1057.54 34.0924 Q1059.89 30.0415 1063.45 28.0971 Q1067.06 26.1121 1072.04 26.1121 Q1080.3 26.1121 1085.45 32.6746 Q1090.63 39.2371 1090.63 49.9314 Q1090.63 60.6258 1085.45 67.1883 Q1080.3 73.7508 1072.04 73.7508 Q1067.06 73.7508 1063.45 71.8063 Q1059.89 69.8214 1057.54 65.7705 L1057.54 72.576 L1050.04 72.576 L1050.04 9.54393 L1057.54 9.54393 L1057.54 34.0924 Z" fill="#000000" fill-rule="evenodd" fill-opacity="1" /><path clip-path="url(#clip990)" d="M1141.8 48.0275 L1141.8 51.6733 L1107.52 51.6733 Q1108.01 59.3701 1112.14 63.421 Q1116.31 67.4314 1123.73 67.4314 Q1128.02 67.4314 1132.03 66.3781 Q1136.08 65.3249 1140.05 63.2184 L1140.05 70.267 Q1136.04 71.9684 1131.83 72.8596 Q1127.62 73.7508 1123.28 73.7508 Q1112.43 73.7508 1106.07 67.4314 Q1099.75 61.1119 1099.75 50.3365 Q1099.75 39.1965 1105.74 32.6746 Q1111.78 26.1121 1121.99 26.1121 Q1131.14 26.1121 1136.45 32.0264 Q1141.8 37.9003 1141.8 48.0275 M1134.34 45.84 Q1134.26 39.7232 1130.9 36.0774 Q1127.58 32.4315 1122.07 32.4315 Q1115.83 32.4315 1112.06 35.9558 Q1108.33 39.4801 1107.77 45.8805 L1134.34 45.84 Z" fill="#000000" fill-rule="evenodd" fill-opacity="1" /><path clip-path="url(#clip990)" d="M1180.32 34.1734 Q1179.06 33.4443 1177.56 33.1202 Q1176.11 32.7556 1174.32 32.7556 Q1168 32.7556 1164.6 36.8875 Q1161.24 40.9789 1161.24 48.6757 L1161.24 72.576 L1153.75 72.576 L1153.75 27.2059 L1161.24 27.2059 L1161.24 34.2544 Q1163.59 30.1225 1167.36 28.1376 Q1171.12 26.1121 1176.51 26.1121 Q1177.28 26.1121 1178.21 26.2337 Q1179.14 26.3147 1180.28 26.5172 L1180.32 34.1734 Z" fill="#000000" fill-rule="evenodd" fill-opacity="1" /><path clip-path="url(#clip990)" d="M1232.09 32.4315 Q1226.09 32.4315 1222.61 37.1306 Q1219.13 41.7891 1219.13 49.9314 Q1219.13 58.0738 1222.57 62.7728 Q1226.05 67.4314 1232.09 67.4314 Q1238.04 67.4314 1241.53 62.7323 Q1245.01 58.0333 1245.01 49.9314 Q1245.01 41.8701 1241.53 37.1711 Q1238.04 32.4315 1232.09 32.4315 M1232.09 26.1121 Q1241.81 26.1121 1247.36 32.4315 Q1252.91 38.7509 1252.91 49.9314 Q1252.91 61.0714 1247.36 67.4314 Q1241.81 73.7508 1232.09 73.7508 Q1222.33 73.7508 1216.78 67.4314 Q1211.27 61.0714 1211.27 49.9314 Q1211.27 38.7509 1216.78 32.4315 Q1222.33 26.1121 1232.09 26.1121 Z" fill="#000000" fill-rule="evenodd" fill-opacity="1" /><path clip-path="url(#clip990)" d="M1288.24 9.54393 L1288.24 15.7418 L1281.11 15.7418 Q1277.1 15.7418 1275.52 17.3622 Q1273.98 18.9825 1273.98 23.1955 L1273.98 27.2059 L1286.25 27.2059 L1286.25 32.9987 L1273.98 32.9987 L1273.98 72.576 L1266.48 72.576 L1266.48 32.9987 L1259.35 32.9987 L1259.35 27.2059 L1266.48 27.2059 L1266.48 24.0462 Q1266.48 16.471 1270.01 13.0277 Q1273.53 9.54393 1281.19 9.54393 L1288.24 9.54393 Z" fill="#000000" fill-rule="evenodd" fill-opacity="1" /><path clip-path="url(#clip990)" d="M1320.85 27.2059 L1328.3 27.2059 L1328.3 72.576 L1320.85 72.576 L1320.85 27.2059 M1320.85 9.54393 L1328.3 9.54393 L1328.3 18.9825 L1320.85 18.9825 L1320.85 9.54393 Z" fill="#000000" fill-rule="evenodd" fill-opacity="1" /><path clip-path="url(#clip990)" d="M1351.27 14.324 L1351.27 27.2059 L1366.62 27.2059 L1366.62 32.9987 L1351.27 32.9987 L1351.27 57.6282 Q1351.27 63.1779 1352.77 64.7578 Q1354.31 66.3376 1358.96 66.3376 L1366.62 66.3376 L1366.62 72.576 L1358.96 72.576 Q1350.34 72.576 1347.05 69.3758 Q1343.77 66.1351 1343.77 57.6282 L1343.77 32.9987 L1338.3 32.9987 L1338.3 27.2059 L1343.77 27.2059 L1343.77 14.324 L1351.27 14.324 Z" fill="#000000" fill-rule="evenodd" fill-opacity="1" /><path clip-path="url(#clip990)" d="M1415.23 48.0275 L1415.23 51.6733 L1380.96 51.6733 Q1381.45 59.3701 1385.58 63.421 Q1389.75 67.4314 1397.16 67.4314 Q1401.46 67.4314 1405.47 66.3781 Q1409.52 65.3249 1413.49 63.2184 L1413.49 70.267 Q1409.48 71.9684 1405.27 72.8596 Q1401.05 73.7508 1396.72 73.7508 Q1385.86 73.7508 1379.5 67.4314 Q1373.18 61.1119 1373.18 50.3365 Q1373.18 39.1965 1379.18 32.6746 Q1385.21 26.1121 1395.42 26.1121 Q1404.58 26.1121 1409.88 32.0264 Q1415.23 37.9003 1415.23 48.0275 M1407.78 45.84 Q1407.7 39.7232 1404.33 36.0774 Q1401.01 32.4315 1395.5 32.4315 Q1389.26 32.4315 1385.5 35.9558 Q1381.77 39.4801 1381.2 45.8805 L1407.78 45.84 Z" fill="#000000" fill-rule="evenodd" fill-opacity="1" /><path clip-path="url(#clip990)" d="M1453.76 34.1734 Q1452.5 33.4443 1451 33.1202 Q1449.54 32.7556 1447.76 32.7556 Q1441.44 32.7556 1438.04 36.8875 Q1434.68 40.9789 1434.68 48.6757 L1434.68 72.576 L1427.18 72.576 L1427.18 27.2059 L1434.68 27.2059 L1434.68 34.2544 Q1437.02 30.1225 1440.79 28.1376 Q1444.56 26.1121 1449.95 26.1121 Q1450.72 26.1121 1451.65 26.2337 Q1452.58 26.3147 1453.71 26.5172 L1453.76 34.1734 Z" fill="#000000" fill-rule="evenodd" fill-opacity="1" /><path clip-path="url(#clip990)" d="M1482.19 49.7694 Q1473.16 49.7694 1469.68 51.8354 Q1466.19 53.9013 1466.19 58.8839 Q1466.19 62.8538 1468.78 65.2034 Q1471.42 67.5124 1475.91 67.5124 Q1482.11 67.5124 1485.84 63.1374 Q1489.61 58.7219 1489.61 51.4303 L1489.61 49.7694 L1482.19 49.7694 M1497.06 46.6907 L1497.06 72.576 L1489.61 72.576 L1489.61 65.6895 Q1487.05 69.8214 1483.25 71.8063 Q1479.44 73.7508 1473.93 73.7508 Q1466.96 73.7508 1462.83 69.8619 Q1458.74 65.9325 1458.74 59.3701 Q1458.74 51.7138 1463.84 47.825 Q1468.99 43.9361 1479.15 43.9361 L1489.61 43.9361 L1489.61 43.2069 Q1489.61 38.0623 1486.2 35.2672 Q1482.84 32.4315 1476.72 32.4315 Q1472.83 32.4315 1469.15 33.3632 Q1465.46 34.295 1462.06 36.1584 L1462.06 29.2718 Q1466.15 27.692 1470 26.9223 Q1473.85 26.1121 1477.49 26.1121 Q1487.34 26.1121 1492.2 31.2163 Q1497.06 36.3204 1497.06 46.6907 Z" fill="#000000" fill-rule="evenodd" fill-opacity="1" /><path clip-path="url(#clip990)" d="M1519.78 14.324 L1519.78 27.2059 L1535.14 27.2059 L1535.14 32.9987 L1519.78 32.9987 L1519.78 57.6282 Q1519.78 63.1779 1521.28 64.7578 Q1522.82 66.3376 1527.48 66.3376 L1535.14 66.3376 L1535.14 72.576 L1527.48 72.576 Q1518.85 72.576 1515.57 69.3758 Q1512.29 66.1351 1512.29 57.6282 L1512.29 32.9987 L1506.82 32.9987 L1506.82 27.2059 L1512.29 27.2059 L1512.29 14.324 L1519.78 14.324 Z" fill="#000000" fill-rule="evenodd" fill-opacity="1" /><path clip-path="url(#clip990)" d="M1544.94 27.2059 L1552.39 27.2059 L1552.39 72.576 L1544.94 72.576 L1544.94 27.2059 M1544.94 9.54393 L1552.39 9.54393 L1552.39 18.9825 L1544.94 18.9825 L1544.94 9.54393 Z" fill="#000000" fill-rule="evenodd" fill-opacity="1" /><path clip-path="url(#clip990)" d="M1585.57 32.4315 Q1579.58 32.4315 1576.09 37.1306 Q1572.61 41.7891 1572.61 49.9314 Q1572.61 58.0738 1576.05 62.7728 Q1579.54 67.4314 1585.57 67.4314 Q1591.53 67.4314 1595.01 62.7323 Q1598.49 58.0333 1598.49 49.9314 Q1598.49 41.8701 1595.01 37.1711 Q1591.53 32.4315 1585.57 32.4315 M1585.57 26.1121 Q1595.29 26.1121 1600.84 32.4315 Q1606.39 38.7509 1606.39 49.9314 Q1606.39 61.0714 1600.84 67.4314 Q1595.29 73.7508 1585.57 73.7508 Q1575.81 73.7508 1570.26 67.4314 Q1564.75 61.0714 1564.75 49.9314 Q1564.75 38.7509 1570.26 32.4315 Q1575.81 26.1121 1585.57 26.1121 Z" fill="#000000" fill-rule="evenodd" fill-opacity="1" /><path clip-path="url(#clip990)" d="M1656.46 45.1919 L1656.46 72.576 L1649.01 72.576 L1649.01 45.4349 Q1649.01 38.994 1646.5 35.7938 Q1643.99 32.5936 1638.96 32.5936 Q1632.93 32.5936 1629.44 36.4419 Q1625.96 40.2903 1625.96 46.9338 L1625.96 72.576 L1618.46 72.576 L1618.46 27.2059 L1625.96 27.2059 L1625.96 34.2544 Q1628.63 30.163 1632.24 28.1376 Q1635.88 26.1121 1640.62 26.1121 Q1648.44 26.1121 1652.45 30.9732 Q1656.46 35.7938 1656.46 45.1919 Z" fill="#000000" fill-rule="evenodd" fill-opacity="1" /><path clip-path="url(#clip990)" d="M1700.25 28.5427 L1700.25 35.5912 Q1697.09 33.9709 1693.69 33.1607 Q1690.29 32.3505 1686.64 32.3505 Q1681.09 32.3505 1678.3 34.0519 Q1675.54 35.7533 1675.54 39.156 Q1675.54 41.7486 1677.53 43.2475 Q1679.51 44.7058 1685.51 46.0426 L1688.06 46.6097 Q1696 48.3111 1699.32 51.4303 Q1702.68 54.509 1702.68 60.0587 Q1702.68 66.3781 1697.66 70.0644 Q1692.68 73.7508 1683.93 73.7508 Q1680.28 73.7508 1676.31 73.0216 Q1672.38 72.3329 1668.01 70.9151 L1668.01 63.2184 Q1672.14 65.3654 1676.15 66.4591 Q1680.16 67.5124 1684.09 67.5124 Q1689.36 67.5124 1692.19 65.73 Q1695.03 63.9071 1695.03 60.6258 Q1695.03 57.5877 1692.96 55.9673 Q1690.94 54.3469 1684.01 52.8481 L1681.42 52.2405 Q1674.49 50.7821 1671.41 47.7845 Q1668.33 44.7463 1668.33 39.4801 Q1668.33 33.0797 1672.87 29.5959 Q1677.41 26.1121 1685.75 26.1121 Q1689.88 26.1121 1693.53 26.7198 Q1697.17 27.3274 1700.25 28.5427 Z" fill="#000000" fill-rule="evenodd" fill-opacity="1" /><path clip-path="url(#clip992)" d="
M323.245 1370.05 L323.245 1386.4 L725.642 1386.4 L725.642 1370.05 L323.245 1370.05 L323.245 1370.05  Z
  " fill="#009af9" fill-rule="evenodd" fill-opacity="1"/>
<polyline clip-path="url(#clip992)" style="stroke:#000000; stroke-linecap:round; stroke-linejoin:round; stroke-width:4; stroke-opacity:1; fill:none" points="
  323.245,1370.05 323.245,1386.4 725.642,1386.4 725.642,1370.05 323.245,1370.05 
  "/>
<path clip-path="url(#clip992)" d="
M826.241 160.256 L826.241 1386.4 L1228.64 1386.4 L1228.64 160.256 L826.241 160.256 L826.241 160.256  Z
  " fill="#009af9" fill-rule="evenodd" fill-opacity="1"/>
<polyline clip-path="url(#clip992)" style="stroke:#000000; stroke-linecap:round; stroke-linejoin:round; stroke-width:4; stroke-opacity:1; fill:none" points="
  826.241,160.256 826.241,1386.4 1228.64,1386.4 1228.64,160.256 826.241,160.256 
  "/>
<path clip-path="url(#clip992)" d="
M1329.24 1370.05 L1329.24 1386.4 L1731.64 1386.4 L1731.64 1370.05 L1329.24 1370.05 L1329.24 1370.05  Z
  " fill="#009af9" fill-rule="evenodd" fill-opacity="1"/>
<polyline clip-path="url(#clip992)" style="stroke:#000000; stroke-linecap:round; stroke-linejoin:round; stroke-width:4; stroke-opacity:1; fill:none" points="
  1329.24,1370.05 1329.24,1386.4 1731.64,1386.4 1731.64,1370.05 1329.24,1370.05 
  "/>
<path clip-path="url(#clip992)" d="
M1832.23 1337.35 L1832.23 1386.4 L2234.63 1386.4 L2234.63 1337.35 L1832.23 1337.35 L1832.23 1337.35  Z
  " fill="#009af9" fill-rule="evenodd" fill-opacity="1"/>
<polyline clip-path="url(#clip992)" style="stroke:#000000; stroke-linecap:round; stroke-linejoin:round; stroke-width:4; stroke-opacity:1; fill:none" points="
  1832.23,1337.35 1832.23,1386.4 2234.63,1386.4 2234.63,1337.35 1832.23,1337.35 
  "/>
<circle clip-path="url(#clip992)" style="fill:#009af9; stroke:none; fill-opacity:0" cx="524.443" cy="1370.05" r="2"/>
<circle clip-path="url(#clip992)" style="fill:#009af9; stroke:none; fill-opacity:0" cx="1027.44" cy="160.256" r="2"/>
<circle clip-path="url(#clip992)" style="fill:#009af9; stroke:none; fill-opacity:0" cx="1530.44" cy="1370.05" r="2"/>
<circle clip-path="url(#clip992)" style="fill:#009af9; stroke:none; fill-opacity:0" cx="2033.43" cy="1337.35" r="2"/>
</svg>
