<?xml version="1.0" encoding="utf-8"?>
<svg xmlns="http://www.w3.org/2000/svg" xmlns:xlink="http://www.w3.org/1999/xlink" width="600" height="400" viewBox="0 0 2400 1600">
<defs>
  <clipPath id="clip030">
    <rect x="0" y="0" width="2400" height="1600"/>
  </clipPath>
</defs>
<path clip-path="url(#clip030)" d="
M0 1600 L2400 1600 L2400 0 L0 0  Z
  " fill="#ffffff" fill-rule="evenodd" fill-opacity="1"/>
<defs>
  <clipPath id="clip031">
    <rect x="480" y="0" width="1681" height="1600"/>
  </clipPath>
</defs>
<path clip-path="url(#clip030)" d="
M264.287 1423.18 L2352.76 1423.18 L2352.76 123.472 L264.287 123.472  Z
  " fill="#ffffff" fill-rule="evenodd" fill-opacity="1"/>
<defs>
  <clipPath id="clip032">
    <rect x="264" y="123" width="2089" height="1301"/>
  </clipPath>
</defs>
<polyline clip-path="url(#clip032)" style="stroke:#000000; stroke-linecap:round; stroke-linejoin:round; stroke-width:2; stroke-opacity:0.1; fill:none" points="
  574.813,1423.18 574.813,123.472 
  "/>
<polyline clip-path="url(#clip032)" style="stroke:#000000; stroke-linecap:round; stroke-linejoin:round; stroke-width:2; stroke-opacity:0.1; fill:none" points="
  1063.95,1423.18 1063.95,123.472 
  "/>
<polyline clip-path="url(#clip032)" style="stroke:#000000; stroke-linecap:round; stroke-linejoin:round; stroke-width:2; stroke-opacity:0.1; fill:none" points="
  1553.09,1423.18 1553.09,123.472 
  "/>
<polyline clip-path="url(#clip032)" style="stroke:#000000; stroke-linecap:round; stroke-linejoin:round; stroke-width:2; stroke-opacity:0.1; fill:none" points="
  2042.23,1423.18 2042.23,123.472 
  "/>
<polyline clip-path="url(#clip030)" style="stroke:#000000; stroke-linecap:round; stroke-linejoin:round; stroke-width:4; stroke-opacity:1; fill:none" points="
  264.287,1423.18 2352.76,1423.18 
  "/>
<polyline clip-path="url(#clip030)" style="stroke:#000000; stroke-linecap:round; stroke-linejoin:round; stroke-width:4; stroke-opacity:1; fill:none" points="
  574.813,1423.18 574.813,1404.28 
  "/>
<polyline clip-path="url(#clip030)" style="stroke:#000000; stroke-linecap:round; stroke-linejoin:round; stroke-width:4; stroke-opacity:1; fill:none" points="
  1063.95,1423.18 1063.95,1404.28 
  "/>
<polyline clip-path="url(#clip030)" style="stroke:#000000; stroke-linecap:round; stroke-linejoin:round; stroke-width:4; stroke-opacity:1; fill:none" points="
  1553.09,1423.18 1553.09,1404.28 
  "/>
<polyline clip-path="url(#clip030)" style="stroke:#000000; stroke-linecap:round; stroke-linejoin:round; stroke-width:4; stroke-opacity:1; fill:none" points="
  2042.23,1423.18 2042.23,1404.28 
  "/>
<path clip-path="url(#clip030)" d="M565.195 1481.64 L572.833 1481.64 L572.833 1455.28 L564.523 1456.95 L564.523 1452.69 L572.787 1451.02 L577.463 1451.02 L577.463 1481.64 L585.102 1481.64 L585.102 1485.58 L565.195 1485.58 L565.195 1481.64 Z" fill="#000000" fill-rule="evenodd" fill-opacity="1" /><path clip-path="url(#clip030)" d="M1058.6 1481.64 L1074.92 1481.64 L1074.92 1485.58 L1052.98 1485.58 L1052.98 1481.64 Q1055.64 1478.89 1060.23 1474.26 Q1064.83 1469.61 1066.01 1468.27 Q1068.26 1465.74 1069.14 1464.01 Q1070.04 1462.25 1070.04 1460.56 Q1070.04 1457.8 1068.1 1456.07 Q1066.17 1454.33 1063.07 1454.33 Q1060.87 1454.33 1058.42 1455.09 Q1055.99 1455.86 1053.21 1457.41 L1053.21 1452.69 Q1056.04 1451.55 1058.49 1450.97 Q1060.94 1450.39 1062.98 1450.39 Q1068.35 1450.39 1071.54 1453.08 Q1074.74 1455.77 1074.74 1460.26 Q1074.74 1462.39 1073.93 1464.31 Q1073.14 1466.2 1071.04 1468.8 Q1070.46 1469.47 1067.35 1472.69 Q1064.25 1475.88 1058.6 1481.64 Z" fill="#000000" fill-rule="evenodd" fill-opacity="1" /><path clip-path="url(#clip030)" d="M1557.34 1466.95 Q1560.7 1467.66 1562.57 1469.93 Q1564.47 1472.2 1564.47 1475.53 Q1564.47 1480.65 1560.95 1483.45 Q1557.43 1486.25 1550.95 1486.25 Q1548.77 1486.25 1546.46 1485.81 Q1544.17 1485.39 1541.71 1484.54 L1541.71 1480.02 Q1543.66 1481.16 1545.97 1481.74 Q1548.29 1482.32 1550.81 1482.32 Q1555.21 1482.32 1557.5 1480.58 Q1559.82 1478.84 1559.82 1475.53 Q1559.82 1472.48 1557.66 1470.77 Q1555.53 1469.03 1551.71 1469.03 L1547.69 1469.03 L1547.69 1465.19 L1551.9 1465.19 Q1555.35 1465.19 1557.18 1463.82 Q1559.01 1462.43 1559.01 1459.84 Q1559.01 1457.18 1557.11 1455.77 Q1555.23 1454.33 1551.71 1454.33 Q1549.79 1454.33 1547.59 1454.75 Q1545.39 1455.16 1542.76 1456.04 L1542.76 1451.88 Q1545.42 1451.14 1547.73 1450.77 Q1550.07 1450.39 1552.13 1450.39 Q1557.45 1450.39 1560.56 1452.83 Q1563.66 1455.23 1563.66 1459.35 Q1563.66 1462.22 1562.01 1464.21 Q1560.37 1466.18 1557.34 1466.95 Z" fill="#000000" fill-rule="evenodd" fill-opacity="1" /><path clip-path="url(#clip030)" d="M2045.24 1455.09 L2033.43 1473.54 L2045.24 1473.54 L2045.24 1455.09 M2044.01 1451.02 L2049.89 1451.02 L2049.89 1473.54 L2054.82 1473.54 L2054.82 1477.43 L2049.89 1477.43 L2049.89 1485.58 L2045.24 1485.58 L2045.24 1477.43 L2029.64 1477.43 L2029.64 1472.92 L2044.01 1451.02 Z" fill="#000000" fill-rule="evenodd" fill-opacity="1" /><path clip-path="url(#clip030)" d="M1185.97 1522.27 L1185.97 1532.4 L1198.03 1532.4 L1198.03 1536.95 L1185.97 1536.95 L1185.97 1556.3 Q1185.97 1560.66 1187.14 1561.9 Q1188.35 1563.14 1192.01 1563.14 L1198.03 1563.14 L1198.03 1568.04 L1192.01 1568.04 Q1185.23 1568.04 1182.66 1565.53 Q1180.08 1562.98 1180.08 1556.3 L1180.08 1536.95 L1175.78 1536.95 L1175.78 1532.4 L1180.08 1532.4 L1180.08 1522.27 L1185.97 1522.27 Z" fill="#000000" fill-rule="evenodd" fill-opacity="1" /><path clip-path="url(#clip030)" d="M1235.36 1546.53 L1235.36 1568.04 L1229.51 1568.04 L1229.51 1546.72 Q1229.51 1541.66 1227.53 1539.14 Q1225.56 1536.63 1221.61 1536.63 Q1216.87 1536.63 1214.13 1539.65 Q1211.4 1542.68 1211.4 1547.9 L1211.4 1568.04 L1205.51 1568.04 L1205.51 1518.52 L1211.4 1518.52 L1211.4 1537.93 Q1213.5 1534.72 1216.33 1533.13 Q1219.19 1531.54 1222.92 1531.54 Q1229.06 1531.54 1232.21 1535.36 Q1235.36 1539.14 1235.36 1546.53 Z" fill="#000000" fill-rule="evenodd" fill-opacity="1" /><path clip-path="url(#clip030)" d="M1267.7 1537.87 Q1266.71 1537.3 1265.54 1537.04 Q1264.39 1536.76 1262.99 1536.76 Q1258.03 1536.76 1255.35 1540 Q1252.71 1543.22 1252.71 1549.27 L1252.71 1568.04 L1246.82 1568.04 L1246.82 1532.4 L1252.71 1532.4 L1252.71 1537.93 Q1254.56 1534.69 1257.52 1533.13 Q1260.48 1531.54 1264.71 1531.54 Q1265.31 1531.54 1266.05 1531.63 Q1266.78 1531.7 1267.67 1531.85 L1267.7 1537.87 Z" fill="#000000" fill-rule="evenodd" fill-opacity="1" /><path clip-path="url(#clip030)" d="M1302.9 1548.76 L1302.9 1551.62 L1275.98 1551.62 Q1276.36 1557.67 1279.61 1560.85 Q1282.88 1564 1288.71 1564 Q1292.08 1564 1295.23 1563.17 Q1298.42 1562.35 1301.54 1560.69 L1301.54 1566.23 Q1298.38 1567.57 1295.07 1568.27 Q1291.76 1568.97 1288.36 1568.97 Q1279.83 1568.97 1274.83 1564 Q1269.87 1559.04 1269.87 1550.57 Q1269.87 1541.82 1274.58 1536.69 Q1279.32 1531.54 1287.34 1531.54 Q1294.53 1531.54 1298.7 1536.18 Q1302.9 1540.8 1302.9 1548.76 M1297.05 1547.04 Q1296.98 1542.23 1294.34 1539.37 Q1291.73 1536.5 1287.4 1536.5 Q1282.5 1536.5 1279.54 1539.27 Q1276.61 1542.04 1276.17 1547.07 L1297.05 1547.04 Z" fill="#000000" fill-rule="evenodd" fill-opacity="1" /><path clip-path="url(#clip030)" d="M1328.72 1550.12 Q1321.62 1550.12 1318.88 1551.75 Q1316.14 1553.37 1316.14 1557.29 Q1316.14 1560.4 1318.18 1562.25 Q1320.25 1564.07 1323.78 1564.07 Q1328.65 1564.07 1331.58 1560.63 Q1334.54 1557.16 1334.54 1551.43 L1334.54 1550.12 L1328.72 1550.12 M1340.4 1547.71 L1340.4 1568.04 L1334.54 1568.04 L1334.54 1562.63 Q1332.54 1565.88 1329.54 1567.44 Q1326.55 1568.97 1322.22 1568.97 Q1316.75 1568.97 1313.5 1565.91 Q1310.29 1562.82 1310.29 1557.67 Q1310.29 1551.65 1314.3 1548.6 Q1318.34 1545.54 1326.33 1545.54 L1334.54 1545.54 L1334.54 1544.97 Q1334.54 1540.93 1331.87 1538.73 Q1329.23 1536.5 1324.42 1536.5 Q1321.36 1536.5 1318.47 1537.23 Q1315.57 1537.97 1312.9 1539.43 L1312.9 1534.02 Q1316.11 1532.78 1319.14 1532.17 Q1322.16 1531.54 1325.02 1531.54 Q1332.76 1531.54 1336.58 1535.55 Q1340.4 1539.56 1340.4 1547.71 Z" fill="#000000" fill-rule="evenodd" fill-opacity="1" /><path clip-path="url(#clip030)" d="M1375.92 1537.81 L1375.92 1518.52 L1381.77 1518.52 L1381.77 1568.04 L1375.92 1568.04 L1375.92 1562.7 Q1374.07 1565.88 1371.24 1567.44 Q1368.44 1568.97 1364.49 1568.97 Q1358.03 1568.97 1353.96 1563.81 Q1349.91 1558.65 1349.91 1550.25 Q1349.91 1541.85 1353.96 1536.69 Q1358.03 1531.54 1364.49 1531.54 Q1368.44 1531.54 1371.24 1533.1 Q1374.07 1534.62 1375.92 1537.81 M1355.96 1550.25 Q1355.96 1556.71 1358.6 1560.4 Q1361.28 1564.07 1365.92 1564.07 Q1370.57 1564.07 1373.24 1560.4 Q1375.92 1556.71 1375.92 1550.25 Q1375.92 1543.79 1373.24 1540.13 Q1370.57 1536.44 1365.92 1536.44 Q1361.28 1536.44 1358.6 1540.13 Q1355.96 1543.79 1355.96 1550.25 Z" fill="#000000" fill-rule="evenodd" fill-opacity="1" /><path clip-path="url(#clip030)" d="M1393.84 1532.4 L1399.69 1532.4 L1399.69 1568.04 L1393.84 1568.04 L1393.84 1532.4 M1393.84 1518.52 L1399.69 1518.52 L1399.69 1525.93 L1393.84 1525.93 L1393.84 1518.52 Z" fill="#000000" fill-rule="evenodd" fill-opacity="1" /><path clip-path="url(#clip030)" d="M1435.41 1537.81 L1435.41 1518.52 L1441.26 1518.52 L1441.26 1568.04 L1435.41 1568.04 L1435.41 1562.7 Q1433.56 1565.88 1430.73 1567.44 Q1427.93 1568.97 1423.98 1568.97 Q1417.52 1568.97 1413.44 1563.81 Q1409.4 1558.65 1409.4 1550.25 Q1409.4 1541.85 1413.44 1536.69 Q1417.52 1531.54 1423.98 1531.54 Q1427.93 1531.54 1430.73 1533.1 Q1433.56 1534.62 1435.41 1537.81 M1415.45 1550.25 Q1415.45 1556.71 1418.09 1560.4 Q1420.76 1564.07 1425.41 1564.07 Q1430.06 1564.07 1432.73 1560.4 Q1435.41 1556.71 1435.41 1550.25 Q1435.41 1543.79 1432.73 1540.13 Q1430.06 1536.44 1425.41 1536.44 Q1420.76 1536.44 1418.09 1540.13 Q1415.45 1543.79 1415.45 1550.25 Z" fill="#000000" fill-rule="evenodd" fill-opacity="1" /><polyline clip-path="url(#clip032)" style="stroke:#000000; stroke-linecap:round; stroke-linejoin:round; stroke-width:2; stroke-opacity:0.1; fill:none" points="
  264.287,1386.4 2352.76,1386.4 
  "/>
<polyline clip-path="url(#clip032)" style="stroke:#000000; stroke-linecap:round; stroke-linejoin:round; stroke-width:2; stroke-opacity:0.1; fill:none" points="
  264.287,1002.15 2352.76,1002.15 
  "/>
<polyline clip-path="url(#clip032)" style="stroke:#000000; stroke-linecap:round; stroke-linejoin:round; stroke-width:2; stroke-opacity:0.1; fill:none" points="
  264.287,617.897 2352.76,617.897 
  "/>
<polyline clip-path="url(#clip032)" style="stroke:#000000; stroke-linecap:round; stroke-linejoin:round; stroke-width:2; stroke-opacity:0.1; fill:none" points="
  264.287,233.648 2352.76,233.648 
  "/>
<polyline clip-path="url(#clip030)" style="stroke:#000000; stroke-linecap:round; stroke-linejoin:round; stroke-width:4; stroke-opacity:1; fill:none" points="
  264.287,1423.18 264.287,123.472 
  "/>
<polyline clip-path="url(#clip030)" style="stroke:#000000; stroke-linecap:round; stroke-linejoin:round; stroke-width:4; stroke-opacity:1; fill:none" points="
  264.287,1386.4 283.185,1386.4 
  "/>
<polyline clip-path="url(#clip030)" style="stroke:#000000; stroke-linecap:round; stroke-linejoin:round; stroke-width:4; stroke-opacity:1; fill:none" points="
  264.287,1002.15 283.185,1002.15 
  "/>
<polyline clip-path="url(#clip030)" style="stroke:#000000; stroke-linecap:round; stroke-linejoin:round; stroke-width:4; stroke-opacity:1; fill:none" points="
  264.287,617.897 283.185,617.897 
  "/>
<polyline clip-path="url(#clip030)" style="stroke:#000000; stroke-linecap:round; stroke-linejoin:round; stroke-width:4; stroke-opacity:1; fill:none" points="
  264.287,233.648 283.185,233.648 
  "/>
<path clip-path="url(#clip030)" d="M216.343 1372.19 Q212.732 1372.19 210.903 1375.76 Q209.098 1379.3 209.098 1386.43 Q209.098 1393.54 210.903 1397.1 Q212.732 1400.64 216.343 1400.64 Q219.977 1400.64 221.783 1397.1 Q223.611 1393.54 223.611 1386.43 Q223.611 1379.3 221.783 1375.76 Q219.977 1372.19 216.343 1372.19 M216.343 1368.49 Q222.153 1368.49 225.209 1373.1 Q228.287 1377.68 228.287 1386.43 Q228.287 1395.16 225.209 1399.76 Q222.153 1404.35 216.343 1404.35 Q210.533 1404.35 207.454 1399.76 Q204.399 1395.16 204.399 1386.43 Q204.399 1377.68 207.454 1373.1 Q210.533 1368.49 216.343 1368.49 Z" fill="#000000" fill-rule="evenodd" fill-opacity="1" /><path clip-path="url(#clip030)" d="M116.668 1015.49 L124.306 1015.49 L124.306 989.126 L115.996 990.792 L115.996 986.533 L124.26 984.866 L128.936 984.866 L128.936 1015.49 L136.575 1015.49 L136.575 1019.43 L116.668 1019.43 L116.668 1015.49 Z" fill="#000000" fill-rule="evenodd" fill-opacity="1" /><path clip-path="url(#clip030)" d="M156.019 987.945 Q152.408 987.945 150.579 991.51 Q148.774 995.052 148.774 1002.18 Q148.774 1009.29 150.579 1012.85 Q152.408 1016.39 156.019 1016.39 Q159.653 1016.39 161.459 1012.85 Q163.288 1009.29 163.288 1002.18 Q163.288 995.052 161.459 991.51 Q159.653 987.945 156.019 987.945 M156.019 984.241 Q161.829 984.241 164.885 988.848 Q167.964 993.431 167.964 1002.18 Q167.964 1010.91 164.885 1015.51 Q161.829 1020.1 156.019 1020.1 Q150.209 1020.1 147.13 1015.51 Q144.075 1010.91 144.075 1002.18 Q144.075 993.431 147.13 988.848 Q150.209 984.241 156.019 984.241 Z" fill="#000000" fill-rule="evenodd" fill-opacity="1" /><path clip-path="url(#clip030)" d="M186.181 987.945 Q182.57 987.945 180.741 991.51 Q178.936 995.052 178.936 1002.18 Q178.936 1009.29 180.741 1012.85 Q182.57 1016.39 186.181 1016.39 Q189.815 1016.39 191.621 1012.85 Q193.45 1009.29 193.45 1002.18 Q193.45 995.052 191.621 991.51 Q189.815 987.945 186.181 987.945 M186.181 984.241 Q191.991 984.241 195.047 988.848 Q198.125 993.431 198.125 1002.18 Q198.125 1010.91 195.047 1015.51 Q191.991 1020.1 186.181 1020.1 Q180.371 1020.1 177.292 1015.51 Q174.237 1010.91 174.237 1002.18 Q174.237 993.431 177.292 988.848 Q180.371 984.241 186.181 984.241 Z" fill="#000000" fill-rule="evenodd" fill-opacity="1" /><path clip-path="url(#clip030)" d="M216.343 987.945 Q212.732 987.945 210.903 991.51 Q209.098 995.052 209.098 1002.18 Q209.098 1009.29 210.903 1012.85 Q212.732 1016.39 216.343 1016.39 Q219.977 1016.39 221.783 1012.85 Q223.611 1009.29 223.611 1002.18 Q223.611 995.052 221.783 991.51 Q219.977 987.945 216.343 987.945 M216.343 984.241 Q222.153 984.241 225.209 988.848 Q228.287 993.431 228.287 1002.18 Q228.287 1010.91 225.209 1015.51 Q222.153 1020.1 216.343 1020.1 Q210.533 1020.1 207.454 1015.51 Q204.399 1010.91 204.399 1002.18 Q204.399 993.431 207.454 988.848 Q210.533 984.241 216.343 984.241 Z" fill="#000000" fill-rule="evenodd" fill-opacity="1" /><path clip-path="url(#clip030)" d="M119.885 631.242 L136.204 631.242 L136.204 635.177 L114.26 635.177 L114.26 631.242 Q116.922 628.487 121.505 623.858 Q126.112 619.205 127.292 617.862 Q129.538 615.339 130.417 613.603 Q131.32 611.844 131.32 610.154 Q131.32 607.4 129.376 605.663 Q127.455 603.927 124.353 603.927 Q122.154 603.927 119.7 604.691 Q117.269 605.455 114.492 607.006 L114.492 602.284 Q117.316 601.15 119.769 600.571 Q122.223 599.992 124.26 599.992 Q129.63 599.992 132.825 602.677 Q136.019 605.363 136.019 609.853 Q136.019 611.983 135.209 613.904 Q134.422 615.802 132.316 618.395 Q131.737 619.066 128.635 622.284 Q125.533 625.478 119.885 631.242 Z" fill="#000000" fill-rule="evenodd" fill-opacity="1" /><path clip-path="url(#clip030)" d="M156.019 603.696 Q152.408 603.696 150.579 607.261 Q148.774 610.802 148.774 617.932 Q148.774 625.038 150.579 628.603 Q152.408 632.145 156.019 632.145 Q159.653 632.145 161.459 628.603 Q163.288 625.038 163.288 617.932 Q163.288 610.802 161.459 607.261 Q159.653 603.696 156.019 603.696 M156.019 599.992 Q161.829 599.992 164.885 604.599 Q167.964 609.182 167.964 617.932 Q167.964 626.659 164.885 631.265 Q161.829 635.848 156.019 635.848 Q150.209 635.848 147.13 631.265 Q144.075 626.659 144.075 617.932 Q144.075 609.182 147.13 604.599 Q150.209 599.992 156.019 599.992 Z" fill="#000000" fill-rule="evenodd" fill-opacity="1" /><path clip-path="url(#clip030)" d="M186.181 603.696 Q182.57 603.696 180.741 607.261 Q178.936 610.802 178.936 617.932 Q178.936 625.038 180.741 628.603 Q182.57 632.145 186.181 632.145 Q189.815 632.145 191.621 628.603 Q193.45 625.038 193.45 617.932 Q193.45 610.802 191.621 607.261 Q189.815 603.696 186.181 603.696 M186.181 599.992 Q191.991 599.992 195.047 604.599 Q198.125 609.182 198.125 617.932 Q198.125 626.659 195.047 631.265 Q191.991 635.848 186.181 635.848 Q180.371 635.848 177.292 631.265 Q174.237 626.659 174.237 617.932 Q174.237 609.182 177.292 604.599 Q180.371 599.992 186.181 599.992 Z" fill="#000000" fill-rule="evenodd" fill-opacity="1" /><path clip-path="url(#clip030)" d="M216.343 603.696 Q212.732 603.696 210.903 607.261 Q209.098 610.802 209.098 617.932 Q209.098 625.038 210.903 628.603 Q212.732 632.145 216.343 632.145 Q219.977 632.145 221.783 628.603 Q223.611 625.038 223.611 617.932 Q223.611 610.802 221.783 607.261 Q219.977 603.696 216.343 603.696 M216.343 599.992 Q222.153 599.992 225.209 604.599 Q228.287 609.182 228.287 617.932 Q228.287 626.659 225.209 631.265 Q222.153 635.848 216.343 635.848 Q210.533 635.848 207.454 631.265 Q204.399 626.659 204.399 617.932 Q204.399 609.182 207.454 604.599 Q210.533 599.992 216.343 599.992 Z" fill="#000000" fill-rule="evenodd" fill-opacity="1" /><path clip-path="url(#clip030)" d="M130.024 232.294 Q133.38 233.011 135.255 235.28 Q137.154 237.548 137.154 240.882 Q137.154 245.997 133.635 248.798 Q130.117 251.599 123.635 251.599 Q121.459 251.599 119.144 251.159 Q116.853 250.743 114.399 249.886 L114.399 245.372 Q116.343 246.507 118.658 247.085 Q120.973 247.664 123.496 247.664 Q127.894 247.664 130.186 245.928 Q132.501 244.192 132.501 240.882 Q132.501 237.826 130.348 236.113 Q128.218 234.377 124.399 234.377 L120.371 234.377 L120.371 230.535 L124.584 230.535 Q128.033 230.535 129.862 229.169 Q131.691 227.78 131.691 225.187 Q131.691 222.525 129.792 221.113 Q127.917 219.678 124.399 219.678 Q122.478 219.678 120.279 220.095 Q118.08 220.511 115.441 221.391 L115.441 217.224 Q118.103 216.484 120.418 216.113 Q122.755 215.743 124.816 215.743 Q130.14 215.743 133.242 218.173 Q136.343 220.581 136.343 224.701 Q136.343 227.572 134.7 229.562 Q133.056 231.53 130.024 232.294 Z" fill="#000000" fill-rule="evenodd" fill-opacity="1" /><path clip-path="url(#clip030)" d="M156.019 219.447 Q152.408 219.447 150.579 223.011 Q148.774 226.553 148.774 233.683 Q148.774 240.789 150.579 244.354 Q152.408 247.896 156.019 247.896 Q159.653 247.896 161.459 244.354 Q163.288 240.789 163.288 233.683 Q163.288 226.553 161.459 223.011 Q159.653 219.447 156.019 219.447 M156.019 215.743 Q161.829 215.743 164.885 220.349 Q167.964 224.933 167.964 233.683 Q167.964 242.409 164.885 247.016 Q161.829 251.599 156.019 251.599 Q150.209 251.599 147.13 247.016 Q144.075 242.409 144.075 233.683 Q144.075 224.933 147.13 220.349 Q150.209 215.743 156.019 215.743 Z" fill="#000000" fill-rule="evenodd" fill-opacity="1" /><path clip-path="url(#clip030)" d="M186.181 219.447 Q182.57 219.447 180.741 223.011 Q178.936 226.553 178.936 233.683 Q178.936 240.789 180.741 244.354 Q182.57 247.896 186.181 247.896 Q189.815 247.896 191.621 244.354 Q193.45 240.789 193.45 233.683 Q193.45 226.553 191.621 223.011 Q189.815 219.447 186.181 219.447 M186.181 215.743 Q191.991 215.743 195.047 220.349 Q198.125 224.933 198.125 233.683 Q198.125 242.409 195.047 247.016 Q191.991 251.599 186.181 251.599 Q180.371 251.599 177.292 247.016 Q174.237 242.409 174.237 233.683 Q174.237 224.933 177.292 220.349 Q180.371 215.743 186.181 215.743 Z" fill="#000000" fill-rule="evenodd" fill-opacity="1" /><path clip-path="url(#clip030)" d="M216.343 219.447 Q212.732 219.447 210.903 223.011 Q209.098 226.553 209.098 233.683 Q209.098 240.789 210.903 244.354 Q212.732 247.896 216.343 247.896 Q219.977 247.896 221.783 244.354 Q223.611 240.789 223.611 233.683 Q223.611 226.553 221.783 223.011 Q219.977 219.447 216.343 219.447 M216.343 215.743 Q222.153 215.743 225.209 220.349 Q228.287 224.933 228.287 233.683 Q228.287 242.409 225.209 247.016 Q222.153 251.599 216.343 251.599 Q210.533 251.599 207.454 247.016 Q204.399 242.409 204.399 233.683 Q204.399 224.933 207.454 220.349 Q210.533 215.743 216.343 215.743 Z" fill="#000000" fill-rule="evenodd" fill-opacity="1" /><path clip-path="url(#clip030)" d="M28.3562 917.525 L28.3562 911.669 L56.1743 904.348 L28.3562 897.059 L28.3562 890.153 L56.1743 882.832 L28.3562 875.543 L28.3562 869.687 L64.0042 879.013 L64.0042 885.919 L34.7856 893.59 L64.0042 901.293 L64.0042 908.199 L28.3562 917.525 Z" fill="#000000" fill-rule="evenodd" fill-opacity="1" /><path clip-path="url(#clip030)" d="M32.4621 846.993 Q32.4621 851.704 36.1542 854.441 Q39.8145 857.178 46.212 857.178 Q52.6095 857.178 56.3017 854.473 Q59.9619 851.736 59.9619 846.993 Q59.9619 842.314 56.2698 839.577 Q52.5777 836.84 46.212 836.84 Q39.8781 836.84 36.186 839.577 Q32.4621 842.314 32.4621 846.993 M27.4968 846.993 Q27.4968 839.354 32.4621 834.994 Q37.4273 830.633 46.212 830.633 Q54.9649 830.633 59.9619 834.994 Q64.9272 839.354 64.9272 846.993 Q64.9272 854.664 59.9619 859.024 Q54.9649 863.353 46.212 863.353 Q37.4273 863.353 32.4621 859.024 Q27.4968 854.664 27.4968 846.993 Z" fill="#000000" fill-rule="evenodd" fill-opacity="1" /><path clip-path="url(#clip030)" d="M33.8307 800.269 Q33.2578 801.256 33.0032 802.433 Q32.7167 803.579 32.7167 804.979 Q32.7167 809.945 35.9632 812.618 Q39.1779 815.26 45.2253 815.26 L64.0042 815.26 L64.0042 821.148 L28.3562 821.148 L28.3562 815.26 L33.8944 815.26 Q30.6479 813.414 29.0883 810.454 Q27.4968 807.494 27.4968 803.261 Q27.4968 802.656 27.5923 801.924 Q27.656 801.192 27.8151 800.301 L33.8307 800.269 Z" fill="#000000" fill-rule="evenodd" fill-opacity="1" /><path clip-path="url(#clip030)" d="M14.479 794.349 L14.479 788.46 L43.7294 788.46 L28.3562 770.987 L28.3562 763.507 L45.0344 782.413 L64.0042 762.711 L64.0042 770.35 L46.5939 788.46 L64.0042 788.46 L64.0042 794.349 L14.479 794.349 Z" fill="#000000" fill-rule="evenodd" fill-opacity="1" /><path clip-path="url(#clip030)" d="M14.479 756.377 L14.479 750.521 L64.0042 750.521 L64.0042 756.377 L14.479 756.377 Z" fill="#000000" fill-rule="evenodd" fill-opacity="1" /><path clip-path="url(#clip030)" d="M32.4621 724.453 Q32.4621 729.164 36.1542 731.901 Q39.8145 734.638 46.212 734.638 Q52.6095 734.638 56.3017 731.933 Q59.9619 729.196 59.9619 724.453 Q59.9619 719.774 56.2698 717.037 Q52.5777 714.3 46.212 714.3 Q39.8781 714.3 36.186 717.037 Q32.4621 719.774 32.4621 724.453 M27.4968 724.453 Q27.4968 716.814 32.4621 712.454 Q37.4273 708.093 46.212 708.093 Q54.9649 708.093 59.9619 712.454 Q64.9272 716.814 64.9272 724.453 Q64.9272 732.124 59.9619 736.484 Q54.9649 740.813 46.212 740.813 Q37.4273 740.813 32.4621 736.484 Q27.4968 732.124 27.4968 724.453 Z" fill="#000000" fill-rule="evenodd" fill-opacity="1" /><path clip-path="url(#clip030)" d="M46.0847 682.185 Q46.0847 689.283 47.7079 692.02 Q49.3312 694.757 53.2461 694.757 Q56.3653 694.757 58.2114 692.72 Q60.0256 690.651 60.0256 687.118 Q60.0256 682.249 56.5881 679.32 Q53.1188 676.36 47.3897 676.36 L46.0847 676.36 L46.0847 682.185 M43.6657 670.504 L64.0042 670.504 L64.0042 676.36 L58.5933 676.36 Q61.8398 678.366 63.3994 681.357 Q64.9272 684.349 64.9272 688.678 Q64.9272 694.153 61.8716 697.399 Q58.7843 700.614 53.6281 700.614 Q47.6125 700.614 44.5569 696.603 Q41.5014 692.561 41.5014 684.572 L41.5014 676.36 L40.9285 676.36 Q36.8862 676.36 34.6901 679.034 Q32.4621 681.676 32.4621 686.482 Q32.4621 689.537 33.1941 692.434 Q33.9262 695.33 35.3903 698.004 L29.9795 698.004 Q28.7381 694.789 28.1334 691.765 Q27.4968 688.742 27.4968 685.877 Q27.4968 678.143 31.5072 674.323 Q35.5176 670.504 43.6657 670.504 Z" fill="#000000" fill-rule="evenodd" fill-opacity="1" /><path clip-path="url(#clip030)" d="M33.7671 634.983 L14.479 634.983 L14.479 629.127 L64.0042 629.127 L64.0042 634.983 L58.657 634.983 Q61.8398 636.829 63.3994 639.662 Q64.9272 642.463 64.9272 646.41 Q64.9272 652.871 59.771 656.945 Q54.6147 660.987 46.212 660.987 Q37.8093 660.987 32.6531 656.945 Q27.4968 652.871 27.4968 646.41 Q27.4968 642.463 29.0564 639.662 Q30.5842 636.829 33.7671 634.983 M46.212 654.94 Q52.6732 654.94 56.3653 652.298 Q60.0256 649.624 60.0256 644.977 Q60.0256 640.33 56.3653 637.657 Q52.6732 634.983 46.212 634.983 Q39.7508 634.983 36.0905 637.657 Q32.3984 640.33 32.3984 644.977 Q32.3984 649.624 36.0905 652.298 Q39.7508 654.94 46.212 654.94 Z" fill="#000000" fill-rule="evenodd" fill-opacity="1" /><path clip-path="url(#clip030)" d="M1119.97 12.096 L1128.24 12.096 L1140.96 63.2184 L1153.64 12.096 L1162.83 12.096 L1175.55 63.2184 L1188.23 12.096 L1196.53 12.096 L1181.34 72.576 L1171.05 72.576 L1158.29 20.0763 L1145.41 72.576 L1135.12 72.576 L1119.97 12.096 Z" fill="#000000" fill-rule="evenodd" fill-opacity="1" /><path clip-path="url(#clip030)" d="M1219.79 32.4315 Q1213.79 32.4315 1210.31 37.1306 Q1206.82 41.7891 1206.82 49.9314 Q1206.82 58.0738 1210.27 62.7728 Q1213.75 67.4314 1219.79 67.4314 Q1225.74 67.4314 1229.23 62.7323 Q1232.71 58.0333 1232.71 49.9314 Q1232.71 41.8701 1229.23 37.1711 Q1225.74 32.4315 1219.79 32.4315 M1219.79 26.1121 Q1229.51 26.1121 1235.06 32.4315 Q1240.61 38.7509 1240.61 49.9314 Q1240.61 61.0714 1235.06 67.4314 Q1229.51 73.7508 1219.79 73.7508 Q1210.02 73.7508 1204.47 67.4314 Q1198.96 61.0714 1198.96 49.9314 Q1198.96 38.7509 1204.47 32.4315 Q1210.02 26.1121 1219.79 26.1121 Z" fill="#000000" fill-rule="evenodd" fill-opacity="1" /><path clip-path="url(#clip030)" d="M1279.25 34.1734 Q1278 33.4443 1276.5 33.1202 Q1275.04 32.7556 1273.26 32.7556 Q1266.94 32.7556 1263.54 36.8875 Q1260.17 40.9789 1260.17 48.6757 L1260.17 72.576 L1252.68 72.576 L1252.68 27.2059 L1260.17 27.2059 L1260.17 34.2544 Q1262.52 30.1225 1266.29 28.1376 Q1270.06 26.1121 1275.45 26.1121 Q1276.22 26.1121 1277.15 26.2337 Q1278.08 26.3147 1279.21 26.5172 L1279.25 34.1734 Z" fill="#000000" fill-rule="evenodd" fill-opacity="1" /><path clip-path="url(#clip030)" d="M1286.79 9.54393 L1294.28 9.54393 L1294.28 46.7717 L1316.52 27.2059 L1326.04 27.2059 L1301.98 48.4326 L1327.05 72.576 L1317.33 72.576 L1294.28 50.4176 L1294.28 72.576 L1286.79 72.576 L1286.79 9.54393 Z" fill="#000000" fill-rule="evenodd" fill-opacity="1" /><path clip-path="url(#clip030)" d="M1335.12 9.54393 L1342.57 9.54393 L1342.57 72.576 L1335.12 72.576 L1335.12 9.54393 Z" fill="#000000" fill-rule="evenodd" fill-opacity="1" /><path clip-path="url(#clip030)" d="M1375.75 32.4315 Q1369.75 32.4315 1366.27 37.1306 Q1362.78 41.7891 1362.78 49.9314 Q1362.78 58.0738 1366.23 62.7728 Q1369.71 67.4314 1375.75 67.4314 Q1381.7 67.4314 1385.18 62.7323 Q1388.67 58.0333 1388.67 49.9314 Q1388.67 41.8701 1385.18 37.1711 Q1381.7 32.4315 1375.75 32.4315 M1375.75 26.1121 Q1385.47 26.1121 1391.02 32.4315 Q1396.57 38.7509 1396.57 49.9314 Q1396.57 61.0714 1391.02 67.4314 Q1385.47 73.7508 1375.75 73.7508 Q1365.98 73.7508 1360.43 67.4314 Q1354.92 61.0714 1354.92 49.9314 Q1354.92 38.7509 1360.43 32.4315 Q1365.98 26.1121 1375.75 26.1121 Z" fill="#000000" fill-rule="evenodd" fill-opacity="1" /><path clip-path="url(#clip030)" d="M1429.54 49.7694 Q1420.51 49.7694 1417.03 51.8354 Q1413.54 53.9013 1413.54 58.8839 Q1413.54 62.8538 1416.13 65.2034 Q1418.77 67.5124 1423.26 67.5124 Q1429.46 67.5124 1433.19 63.1374 Q1436.96 58.7219 1436.96 51.4303 L1436.96 49.7694 L1429.54 49.7694 M1444.41 46.6907 L1444.41 72.576 L1436.96 72.576 L1436.96 65.6895 Q1434.4 69.8214 1430.6 71.8063 Q1426.79 73.7508 1421.28 73.7508 Q1414.31 73.7508 1410.18 69.8619 Q1406.09 65.9325 1406.09 59.3701 Q1406.09 51.7138 1411.19 47.825 Q1416.34 43.9361 1426.5 43.9361 L1436.96 43.9361 L1436.96 43.2069 Q1436.96 38.0623 1433.55 35.2672 Q1430.19 32.4315 1424.07 32.4315 Q1420.18 32.4315 1416.5 33.3632 Q1412.81 34.295 1409.41 36.1584 L1409.41 29.2718 Q1413.5 27.692 1417.35 26.9223 Q1421.2 26.1121 1424.84 26.1121 Q1434.69 26.1121 1439.55 31.2163 Q1444.41 36.3204 1444.41 46.6907 Z" fill="#000000" fill-rule="evenodd" fill-opacity="1" /><path clip-path="url(#clip030)" d="M1489.62 34.0924 L1489.62 9.54393 L1497.07 9.54393 L1497.07 72.576 L1489.62 72.576 L1489.62 65.7705 Q1487.27 69.8214 1483.66 71.8063 Q1480.1 73.7508 1475.07 73.7508 Q1466.85 73.7508 1461.67 67.1883 Q1456.52 60.6258 1456.52 49.9314 Q1456.52 39.2371 1461.67 32.6746 Q1466.85 26.1121 1475.07 26.1121 Q1480.1 26.1121 1483.66 28.0971 Q1487.27 30.0415 1489.62 34.0924 M1464.22 49.9314 Q1464.22 58.1548 1467.58 62.8538 Q1470.98 67.5124 1476.9 67.5124 Q1482.81 67.5124 1486.21 62.8538 Q1489.62 58.1548 1489.62 49.9314 Q1489.62 41.7081 1486.21 37.0496 Q1482.81 32.3505 1476.9 32.3505 Q1470.98 32.3505 1467.58 37.0496 Q1464.22 41.7081 1464.22 49.9314 Z" fill="#000000" fill-rule="evenodd" fill-opacity="1" /><path clip-path="url(#clip032)" d="
M379.157 1382.94 L379.157 1386.4 L770.468 1386.4 L770.468 1382.94 L379.157 1382.94 L379.157 1382.94  Z
  " fill="#009af9" fill-rule="evenodd" fill-opacity="1"/>
<polyline clip-path="url(#clip032)" style="stroke:#000000; stroke-linecap:round; stroke-linejoin:round; stroke-width:4; stroke-opacity:1; fill:none" points="
  379.157,1382.94 379.157,1386.4 770.468,1386.4 770.468,1382.94 379.157,1382.94 
  "/>
<path clip-path="url(#clip032)" d="
M868.296 160.256 L868.296 1386.4 L1259.61 1386.4 L1259.61 160.256 L868.296 160.256 L868.296 160.256  Z
  " fill="#009af9" fill-rule="evenodd" fill-opacity="1"/>
<polyline clip-path="url(#clip032)" style="stroke:#000000; stroke-linecap:round; stroke-linejoin:round; stroke-width:4; stroke-opacity:1; fill:none" points="
  868.296,160.256 868.296,1386.4 1259.61,1386.4 1259.61,160.256 868.296,160.256 
  "/>
<path clip-path="url(#clip032)" d="
M1357.44 1385.24 L1357.44 1386.4 L1748.75 1386.4 L1748.75 1385.24 L1357.44 1385.24 L1357.44 1385.24  Z
  " fill="#009af9" fill-rule="evenodd" fill-opacity="1"/>
<polyline clip-path="url(#clip032)" style="stroke:#000000; stroke-linecap:round; stroke-linejoin:round; stroke-width:4; stroke-opacity:1; fill:none" points="
  1357.44,1385.24 1357.44,1386.4 1748.75,1386.4 1748.75,1385.24 1357.44,1385.24 
  "/>
<path clip-path="url(#clip032)" d="
M1846.57 1372.18 L1846.57 1386.4 L2237.89 1386.4 L2237.89 1372.18 L1846.57 1372.18 L1846.57 1372.18  Z
  " fill="#009af9" fill-rule="evenodd" fill-opacity="1"/>
<polyline clip-path="url(#clip032)" style="stroke:#000000; stroke-linecap:round; stroke-linejoin:round; stroke-width:4; stroke-opacity:1; fill:none" points="
  1846.57,1372.18 1846.57,1386.4 2237.89,1386.4 2237.89,1372.18 1846.57,1372.18 
  "/>
<circle clip-path="url(#clip032)" style="fill:#009af9; stroke:none; fill-opacity:0" cx="574.813" cy="1382.94" r="2"/>
<circle clip-path="url(#clip032)" style="fill:#009af9; stroke:none; fill-opacity:0" cx="1063.95" cy="160.256" r="2"/>
<circle clip-path="url(#clip032)" style="fill:#009af9; stroke:none; fill-opacity:0" cx="1553.09" cy="1385.24" r="2"/>
<circle clip-path="url(#clip032)" style="fill:#009af9; stroke:none; fill-opacity:0" cx="2042.23" cy="1372.18" r="2"/>
</svg>
